<svg xmlns="http://www.w3.org/2000/svg" viewBox="0 0 64 64"><defs><style>.cls-1{fill:none;}.cls-2{fill:#00a1e0;}.cls-3{fill:#fff;}.cls-3,.cls-4{fill-rule:evenodd;}.cls-4{fill:#032e61;}</style></defs><title>integration-day</title><g id="invisi-border"><rect class="cls-1" width="64" height="64"/></g><g id="icon"><circle class="cls-2" cx="32" cy="32" r="26"/><path class="cls-3" d="M24.9,44.56a12.88,12.88,0,0,1-7.16-11.71,13.3,13.3,0,0,1,2.21-7.38l9.21,13.79h5.57l9.21-13.79a13.3,13.3,0,0,1,2.21,7.38,13,13,0,0,1-6.32,11.27l1.77,6.82a21.11,21.11,0,0,0,1.1-36.84L32,30.69,21.41,14.05a21.1,21.1,0,0,0,1.74,37.26Z"/><path class="cls-4" d="M32,4A28,28,0,1,0,60,32,28,28,0,0,0,32,4Zm0,53.83A25.66,25.66,0,1,1,57.54,32.17,25.6,25.6,0,0,1,32,57.83Z"/></g></svg>