<svg xmlns="http://www.w3.org/2000/svg" viewBox="0 0 64 64"><defs><style>.cls-1{fill:none;}.cls-2{fill:#7673c0;}.cls-3{fill:#211746;}.cls-4{fill:#fff;}</style></defs><title>heroku-day</title><g id="invisi-border"><rect class="cls-1" width="64" height="64"/></g><g id="icon"><rect class="cls-2" x="9.02" y="9" width="45.98" height="45.98"/><path class="cls-3" d="M55,57H9a2,2,0,0,1-2-2V9A2,2,0,0,1,9,7H55a2,2,0,0,1,2,2V55A2,2,0,0,1,55,57ZM11,53H53V11H11Z"/><polygon class="cls-4" points="21.14 49 26.61 44.14 21.14 39.29 21.14 49"/><path class="cls-4" d="M40.89,29.31a7.81,7.81,0,0,0-5.78-2.17A30.73,30.73,0,0,0,26,28.79V15H21.14V36.06l3.43-1.55c.06,0,5.59-2.51,10.53-2.51,2.47,0,3,1.36,3,2.5V49H43V34.43A7.58,7.58,0,0,0,40.89,29.31Z"/><path class="cls-4" d="M34.5,22.89h4.86A14.23,14.23,0,0,0,43,15H38.14A18.88,18.88,0,0,1,34.5,22.89Z"/></g></svg>